<svg width="66" height="73" viewBox="0 0 66 73" fill="none" xmlns="http://www.w3.org/2000/svg">
<path d="M18.6406 26.8594C18.1354 26.8438 17.6979 26.7266 17.3281 26.5078C16.9583 26.2891 16.651 26 16.4062 25.6406C16.1719 25.2969 15.9948 24.9115 15.875 24.4844C15.7552 24.0625 15.6953 23.6432 15.6953 23.2266V21.9062C15.6953 21.1562 15.5156 20.612 15.1562 20.2734C14.8021 19.9349 14.2578 19.763 13.5234 19.7578V18.625C14.2578 18.625 14.8021 18.4583 15.1562 18.125C15.5156 17.7865 15.6953 17.2396 15.6953 16.4844V15.1562C15.6953 14.7344 15.75 14.3047 15.8594 13.8672C15.974 13.4245 16.1536 13.0286 16.3984 12.6797C16.6276 12.3464 16.9271 12.0755 17.2969 11.8672C17.6667 11.6536 18.1146 11.5391 18.6406 11.5234L18.8047 12.4219C18.4297 12.4323 18.1302 12.5208 17.9062 12.6875C17.6875 12.8542 17.5234 13.0651 17.4141 13.3203C17.2995 13.5807 17.2266 13.8724 17.1953 14.1953C17.1641 14.5182 17.1484 14.8385 17.1484 15.1562V16.4844C17.1484 17.1094 17.0026 17.6589 16.7109 18.1328C16.4245 18.6016 15.9792 18.9583 15.375 19.2031C15.9792 19.4427 16.4245 19.7995 16.7109 20.2734C16.9974 20.7422 17.1432 21.2865 17.1484 21.9062V23.2266C17.1484 23.5495 17.1745 23.8698 17.2266 24.1875C17.2786 24.5104 17.3698 24.7995 17.5 25.0547C17.625 25.3151 17.7917 25.5286 18 25.6953C18.2135 25.862 18.4818 25.9505 18.8047 25.9609L18.6406 26.8594Z" fill="#F8F5EC"/>
<path d="M47.5234 25.9609C47.8411 25.9505 48.1068 25.862 48.3203 25.6953C48.5339 25.5286 48.7057 25.3151 48.8359 25.0547C48.9609 24.7995 49.0495 24.5104 49.1016 24.1875C49.1589 23.8698 49.1875 23.5495 49.1875 23.2266V21.9062C49.1875 21.4948 49.2474 21.1146 49.3672 20.7656C49.4922 20.4167 49.6823 20.1146 49.9375 19.8594C50.0729 19.724 50.224 19.6016 50.3906 19.4922C50.5625 19.3828 50.75 19.2865 50.9531 19.2031C50.7448 19.1198 50.5521 19.0208 50.375 18.9062C50.2031 18.7917 50.0521 18.6641 49.9219 18.5234C49.6719 18.263 49.487 17.9609 49.3672 17.6172C49.2474 17.2682 49.1875 16.8906 49.1875 16.4844V15.1562C49.1875 14.8385 49.1693 14.5182 49.1328 14.1953C49.1016 13.8724 49.0312 13.5807 48.9219 13.3203C48.8073 13.0651 48.6406 12.8542 48.4219 12.6875C48.2031 12.5208 47.9062 12.4323 47.5312 12.4219L47.6875 11.5234C48.1927 11.5391 48.625 11.6458 48.9844 11.8438C49.349 12.0417 49.6484 12.2995 49.8828 12.6172C50.1484 12.9766 50.3385 13.3802 50.4531 13.8281C50.5729 14.276 50.6328 14.7188 50.6328 15.1562V16.4844C50.6328 16.7969 50.6615 17.0729 50.7188 17.3125C50.7812 17.5469 50.8724 17.75 50.9922 17.9219C51.1641 18.1667 51.401 18.3464 51.7031 18.4609C52.0104 18.5703 52.3776 18.625 52.8047 18.625V19.7578C52.4297 19.763 52.1016 19.8099 51.8203 19.8984C51.5443 19.9818 51.3177 20.1146 51.1406 20.2969C50.9688 20.474 50.8411 20.6953 50.7578 20.9609C50.6745 21.2266 50.6328 21.5417 50.6328 21.9062V23.2266C50.6328 23.6432 50.5755 24.0625 50.4609 24.4844C50.3464 24.9115 50.1693 25.2995 49.9297 25.6484C49.6849 25.9974 49.3776 26.2839 49.0078 26.5078C48.638 26.7318 48.1979 26.849 47.6875 26.8594L47.5234 25.9609Z" fill="#F8F5EC"/>
<path d="M3.98399 68.128C3.39732 68.128 2.86399 67.9893 2.38399 67.712C1.90399 67.424 1.51999 67.0293 1.23199 66.528C0.954661 66.0267 0.815994 65.4613 0.815994 64.832C0.815994 64.16 0.959994 63.5787 1.24799 63.088C1.53599 62.5973 1.92532 62.2187 2.41599 61.952C2.91732 61.6853 3.46666 61.552 4.06399 61.552C4.66132 61.552 5.22666 61.7067 5.75999 62.016C6.30399 62.3253 6.69866 62.7307 6.94399 63.232L6.81599 63.584V55.84H7.56799V68H6.79999V66.08L6.95999 66.432C6.69332 66.9333 6.29332 67.344 5.75999 67.664C5.22666 67.9733 4.63466 68.128 3.98399 68.128ZM4.17599 67.472C4.65599 67.472 5.08799 67.3707 5.47199 67.168C5.85599 66.9547 6.16532 66.672 6.39999 66.32C6.63466 65.9573 6.76799 65.552 6.79999 65.104V64.304C6.72532 63.8987 6.55999 63.536 6.30399 63.216C6.04799 62.896 5.73866 62.6453 5.37599 62.464C5.01332 62.272 4.61332 62.176 4.17599 62.176C3.69599 62.176 3.25866 62.288 2.86399 62.512C2.46932 62.736 2.15466 63.0453 1.91999 63.44C1.68532 63.8347 1.56799 64.2933 1.56799 64.816C1.56799 65.3067 1.68532 65.7547 1.91999 66.16C2.15466 66.5547 2.46932 66.8747 2.86399 67.12C3.26932 67.3547 3.70666 67.472 4.17599 67.472ZM13.1284 68.128C12.4777 68.128 11.9017 67.984 11.4004 67.696C10.899 67.408 10.5044 67.0187 10.2164 66.528C9.93903 66.0267 9.80037 65.4667 9.80037 64.848C9.80037 64.24 9.9497 63.6853 10.2484 63.184C10.547 62.6827 10.947 62.2827 11.4484 61.984C11.9604 61.6853 12.5257 61.536 13.1444 61.536C13.891 61.536 14.515 61.7547 15.0164 62.192C15.5284 62.6293 15.8964 63.2 16.1204 63.904L10.6484 66.016L10.4244 65.472L15.4324 63.52L15.2724 63.744C15.091 63.3173 14.8137 62.9493 14.4404 62.64C14.0777 62.3307 13.6297 62.176 13.0964 62.176C12.6164 62.176 12.1844 62.2933 11.8004 62.528C11.4164 62.7627 11.107 63.0773 10.8724 63.472C10.6484 63.8667 10.5364 64.3147 10.5364 64.816C10.5364 65.2853 10.643 65.7227 10.8564 66.128C11.0804 66.5333 11.3897 66.8587 11.7844 67.104C12.179 67.3493 12.6324 67.472 13.1444 67.472C13.4857 67.472 13.811 67.408 14.1204 67.28C14.4404 67.152 14.723 66.9867 14.9684 66.784L15.3524 67.328C15.0537 67.5627 14.707 67.7547 14.3124 67.904C13.9284 68.0533 13.5337 68.128 13.1284 68.128ZM20.2566 68.24L17.0886 61.744H17.9686L20.5766 67.424L20.1126 67.408L22.6246 61.744H23.4566L20.3526 68.24H20.2566ZM27.9721 68.128C27.3215 68.128 26.7455 67.984 26.2441 67.696C25.7428 67.408 25.3481 67.0187 25.0601 66.528C24.7828 66.0267 24.6441 65.4667 24.6441 64.848C24.6441 64.24 24.7935 63.6853 25.0921 63.184C25.3908 62.6827 25.7908 62.2827 26.2921 61.984C26.8041 61.6853 27.3695 61.536 27.9881 61.536C28.7348 61.536 29.3588 61.7547 29.8601 62.192C30.3721 62.6293 30.7401 63.2 30.9641 63.904L25.4921 66.016L25.2681 65.472L30.2761 63.52L30.1161 63.744C29.9348 63.3173 29.6575 62.9493 29.2841 62.64C28.9215 62.3307 28.4735 62.176 27.9401 62.176C27.4601 62.176 27.0281 62.2933 26.6441 62.528C26.2601 62.7627 25.9508 63.0773 25.7161 63.472C25.4921 63.8667 25.3801 64.3147 25.3801 64.816C25.3801 65.2853 25.4868 65.7227 25.7001 66.128C25.9241 66.5333 26.2335 66.8587 26.6281 67.104C27.0228 67.3493 27.4761 67.472 27.9881 67.472C28.3295 67.472 28.6548 67.408 28.9641 67.28C29.2841 67.152 29.5668 66.9867 29.8121 66.784L30.1961 67.328C29.8975 67.5627 29.5508 67.7547 29.1561 67.904C28.7721 68.0533 28.3775 68.128 27.9721 68.128ZM33.049 55.84H33.801V68H33.049V55.84ZM36.0348 64.832C36.0348 64.224 36.1788 63.6693 36.4668 63.168C36.7654 62.6667 37.1654 62.272 37.6668 61.984C38.1788 61.6853 38.7494 61.536 39.3788 61.536C40.0188 61.536 40.5894 61.6853 41.0908 61.984C41.5921 62.272 41.9868 62.6667 42.2748 63.168C42.5628 63.6693 42.7068 64.224 42.7068 64.832C42.7068 65.44 42.5628 65.9947 42.2748 66.496C41.9868 66.9973 41.5868 67.3973 41.0748 67.696C40.5734 67.984 40.0081 68.128 39.3788 68.128C38.7388 68.128 38.1681 67.9893 37.6668 67.712C37.1654 67.424 36.7654 67.0347 36.4668 66.544C36.1788 66.0427 36.0348 65.472 36.0348 64.832ZM36.7868 64.848C36.7868 65.3387 36.8988 65.7867 37.1228 66.192C37.3574 66.5867 37.6668 66.9013 38.0508 67.136C38.4454 67.3707 38.8828 67.488 39.3628 67.488C39.8428 67.488 40.2748 67.3707 40.6588 67.136C41.0534 66.9013 41.3628 66.5867 41.5868 66.192C41.8214 65.7867 41.9388 65.3387 41.9388 64.848C41.9388 64.3573 41.8214 63.9147 41.5868 63.52C41.3628 63.1147 41.0534 62.7947 40.6588 62.56C40.2748 62.3147 39.8428 62.192 39.3628 62.192C38.8721 62.192 38.4294 62.32 38.0348 62.576C37.6508 62.8213 37.3468 63.1467 37.1228 63.552C36.8988 63.9573 36.7868 64.3893 36.7868 64.848ZM48.3956 68.128C47.7983 68.128 47.2383 67.9733 46.7156 67.664C46.193 67.344 45.809 66.9333 45.5636 66.432L45.6916 66.16V71.008H44.9396V61.696H45.6116L45.6916 63.744L45.5476 63.28C45.825 62.7787 46.2303 62.368 46.7636 62.048C47.297 61.7173 47.8783 61.552 48.5076 61.552C49.105 61.552 49.6436 61.696 50.1236 61.984C50.6036 62.272 50.9823 62.6667 51.2596 63.168C51.5476 63.6587 51.6916 64.224 51.6916 64.864C51.6916 65.4933 51.5423 66.0587 51.2436 66.56C50.9556 67.0507 50.561 67.4347 50.0596 67.712C49.569 67.9893 49.0143 68.128 48.3956 68.128ZM48.2676 67.504C48.7583 67.504 49.201 67.3867 49.5956 67.152C50.001 66.9173 50.321 66.6027 50.5556 66.208C50.801 65.8027 50.9236 65.3547 50.9236 64.864C50.9236 64.3627 50.8063 63.9147 50.5716 63.52C50.337 63.1147 50.0223 62.7947 49.6276 62.56C49.2436 62.3253 48.8063 62.208 48.3156 62.208C47.8463 62.208 47.4196 62.3147 47.0356 62.528C46.6516 62.7413 46.3423 63.0293 46.1076 63.392C45.873 63.7547 45.7343 64.1653 45.6916 64.624V65.136C45.7236 65.5733 45.857 65.9733 46.0916 66.336C46.337 66.6987 46.6463 66.9867 47.0196 67.2C47.4036 67.4027 47.8196 67.504 48.2676 67.504ZM56.644 68.128C55.9933 68.128 55.4173 67.984 54.916 67.696C54.4147 67.408 54.02 67.0187 53.732 66.528C53.4547 66.0267 53.316 65.4667 53.316 64.848C53.316 64.24 53.4653 63.6853 53.764 63.184C54.0627 62.6827 54.4627 62.2827 54.964 61.984C55.476 61.6853 56.0413 61.536 56.66 61.536C57.4067 61.536 58.0307 61.7547 58.532 62.192C59.044 62.6293 59.412 63.2 59.636 63.904L54.164 66.016L53.94 65.472L58.948 63.52L58.788 63.744C58.6067 63.3173 58.3293 62.9493 57.956 62.64C57.5933 62.3307 57.1453 62.176 56.612 62.176C56.132 62.176 55.7 62.2933 55.316 62.528C54.932 62.7627 54.6227 63.0773 54.388 63.472C54.164 63.8667 54.052 64.3147 54.052 64.816C54.052 65.2853 54.1587 65.7227 54.372 66.128C54.596 66.5333 54.9053 66.8587 55.3 67.104C55.6947 67.3493 56.148 67.472 56.66 67.472C57.0013 67.472 57.3267 67.408 57.636 67.28C57.956 67.152 58.2387 66.9867 58.484 66.784L58.868 67.328C58.5693 67.5627 58.2227 67.7547 57.828 67.904C57.444 68.0533 57.0493 68.128 56.644 68.128ZM62.3769 61.744L62.4569 63.664L62.3609 63.424C62.4995 63.04 62.7182 62.7093 63.0169 62.432C63.3155 62.1547 63.6462 61.9413 64.0089 61.792C64.3822 61.6427 64.7395 61.568 65.0809 61.568L65.0489 62.304C64.5689 62.304 64.1315 62.4107 63.7369 62.624C63.3529 62.8373 63.0435 63.1253 62.8089 63.488C62.5849 63.84 62.4729 64.24 62.4729 64.688V68H61.7209V61.744H62.3769Z" fill="#89BCD9"/>
<path d="M41.4609 35H50.5436L63 19.3504L50.5436 3H41.4609L24.5928 35H16.2886L5 19.3504L16.2886 3H24.5928" stroke="#89BCD9" stroke-width="4" stroke-linecap="round"/>
<path d="M1.35156 51.1543H3.58398C4.04688 51.1543 4.44238 50.9932 4.77051 50.6709C5.09863 50.3486 5.2627 49.959 5.2627 49.502V40.502H7.1084V49.5283C7.1084 50.167 6.9502 50.75 6.63379 51.2773C6.31738 51.7988 5.89258 52.2178 5.35938 52.5342C4.82617 52.8447 4.23438 53 3.58398 53H1.35156V51.1543ZM9.4664 51.9453C9.4664 51.6289 9.57773 51.3594 9.80038 51.1367C10.023 50.9141 10.2926 50.8027 10.609 50.8027C10.9312 50.8027 11.2008 50.9141 11.4176 51.1367C11.6402 51.3535 11.7516 51.623 11.7516 51.9453C11.7516 52.2676 11.6402 52.54 11.4176 52.7627C11.2008 52.9795 10.9312 53.0879 10.609 53.0879C10.2926 53.0879 10.023 52.9766 9.80038 52.7539C9.57773 52.5312 9.4664 52.2617 9.4664 51.9453ZM19.4822 40.502H21.3367V45.5645H22.2595L27.2166 40.502H29.7742L23.7273 46.6807L30.1521 53H27.5594L21.8816 47.4189H21.3367V53H19.4822V40.502ZM30.9632 45.7754C30.9632 45.2539 31.1537 44.8115 31.5345 44.4482C31.9154 44.0791 32.3724 43.8945 32.9056 43.8945H36.7025C37.1888 43.8945 37.6283 44.0146 38.0209 44.2549C38.4193 44.4893 38.7357 44.8086 38.9701 45.2129C39.2103 45.6113 39.3304 46.0537 39.3304 46.54V46.7949C39.3304 47.2754 39.2103 47.7148 38.9701 48.1133C38.7357 48.5059 38.4193 48.8223 38.0209 49.0625C37.6283 49.2969 37.1888 49.4141 36.7025 49.4141H33.8724V47.5684H36.7201C36.931 47.5684 37.1097 47.4922 37.2562 47.3398C37.4086 47.1875 37.4847 47.0029 37.4847 46.7861V46.54C37.4847 46.3174 37.4086 46.1299 37.2562 45.9775C37.1097 45.8252 36.931 45.749 36.7201 45.749H32.8177V50.4248C32.8177 50.624 32.8851 50.7939 33.0199 50.9346C33.1547 51.0752 33.3187 51.1455 33.5121 51.1455H38.6888V53H33.5121C33.0433 53 32.6156 52.8857 32.2289 52.6572C31.8422 52.4229 31.5345 52.1123 31.306 51.7256C31.0775 51.333 30.9632 50.9023 30.9632 50.4336V45.7754ZM41.4599 40.502H43.3144V53H41.4599V40.502ZM45.5406 40.502H47.3951V53H45.5406V40.502ZM49.6212 45.7754C49.6212 45.2539 49.8117 44.8115 50.1925 44.4482C50.5734 44.0791 51.0304 43.8945 51.5636 43.8945H55.3605C55.8468 43.8945 56.2863 44.0146 56.6789 44.2549C57.0773 44.4893 57.3937 44.8086 57.6281 45.2129C57.8683 45.6113 57.9884 46.0537 57.9884 46.54V46.7949C57.9884 47.2754 57.8683 47.7148 57.6281 48.1133C57.3937 48.5059 57.0773 48.8223 56.6789 49.0625C56.2863 49.2969 55.8468 49.4141 55.3605 49.4141H52.5304V47.5684H55.3781C55.589 47.5684 55.7677 47.4922 55.9142 47.3398C56.0665 47.1875 56.1427 47.0029 56.1427 46.7861V46.54C56.1427 46.3174 56.0665 46.1299 55.9142 45.9775C55.7677 45.8252 55.589 45.749 55.3781 45.749H51.4757V50.4248C51.4757 50.624 51.5431 50.7939 51.6779 50.9346C51.8126 51.0752 51.9767 51.1455 52.1701 51.1455H57.3468V53H52.1701C51.7013 53 51.2736 52.8857 50.8869 52.6572C50.5001 52.4229 50.1925 52.1123 49.964 51.7256C49.7355 51.333 49.6212 50.9023 49.6212 50.4336V45.7754ZM60.1179 46.4434C60.1179 45.9746 60.2351 45.5469 60.4695 45.1602C60.7097 44.7734 61.0261 44.4658 61.4187 44.2373C61.8171 44.0088 62.2566 43.8945 62.737 43.8945H64.7673V45.7402H62.737C62.5261 45.7402 62.3445 45.8135 62.1921 45.96C62.0456 46.1006 61.9724 46.2734 61.9724 46.4785V53H60.1179V46.4434Z" fill="white"/>
</svg>
