<svg width="42" height="44" viewBox="0 0 42 44" fill="none" xmlns="http://www.w3.org/2000/svg">
<mask id="mask0_2131_5602" style="mask-type:luminance" maskUnits="userSpaceOnUse" x="0" y="0" width="42" height="44">
<path d="M42 0H0V43.8667H42V0Z" fill="white"/>
</mask>
<g mask="url(#mask0_2131_5602)">
<path fill-rule="evenodd" clip-rule="evenodd" d="M4.56501 11.4431H20.9996V9.5358H10.9562V4.7679C10.9562 4.7679 10.9562 0 20.9996 0C31.0431 0 31.0431 4.7679 31.0431 4.7679C31.0431 4.7679 31.1187 13.2591 31.0809 16.1654C31.0431 19.0724 29.2169 20.9789 26.4722 20.9789H15.5219C11.8696 20.9789 9.13076 23.8395 9.13076 27.6541V32.422H4.56575C4.56575 32.422 0 32.4228 0 21.9329C0 11.4431 4.56501 11.4431 4.56501 11.4431ZM17.3473 4.76867C17.3473 5.82176 16.5294 6.67599 15.5212 6.67599C14.5129 6.67599 13.695 5.82176 13.695 4.76867C13.695 3.71559 14.5129 2.86136 15.5212 2.86136C16.5294 2.86136 17.3473 3.71559 17.3473 4.76867Z" fill="#89BCD9"/>
<path fill-rule="evenodd" clip-rule="evenodd" d="M37.439 32.4242H21.0044V34.3315H31.0479V39.0994C31.0479 39.0994 31.0479 43.8673 21.0044 43.8673C10.9609 43.8673 10.9609 39.0994 10.9609 39.0994V27.6563C10.9609 24.795 12.7871 22.8884 15.5259 22.8884H26.4829C30.1352 22.8884 32.874 20.0278 32.874 16.2132V11.4453H37.439C37.439 11.4453 42.004 11.4453 42.004 21.9352C42.004 32.425 37.439 32.425 37.439 32.425V32.4242ZM28.3075 39.1002C28.3075 40.1533 27.4896 41.0075 26.4814 41.0075C25.4731 41.0075 24.6552 40.1533 24.6552 39.1002C24.6552 38.0471 25.4731 37.1929 26.4814 37.1929C27.4896 37.1929 28.3075 38.0471 28.3075 39.1002Z" fill="#89BCD9"/>
</g>
</svg>
