<svg width="36" height="45" viewBox="0 0 36 45" fill="none" xmlns="http://www.w3.org/2000/svg">
<path fill-rule="evenodd" clip-rule="evenodd" d="M4.35443 7.06152C3.76974 7.60842 3.6735 7.99262 3.6735 8.19505C3.6735 8.39747 3.76974 8.78168 4.35443 9.32858C4.94216 9.87831 5.89229 10.4579 7.2197 10.9831C9.86376 12.0292 13.642 12.7166 17.9083 12.7166C22.1746 12.7166 25.9529 12.0292 28.5969 10.9831C29.9243 10.4579 30.8745 9.87831 31.4622 9.32858C32.0469 8.78168 32.1431 8.39747 32.1431 8.19505C32.1431 7.99262 32.0469 7.60842 31.4622 7.06152C30.8745 6.51179 29.9243 5.93215 28.5969 5.407C25.9529 4.36094 22.1746 3.6735 17.9083 3.6735C13.642 3.6735 9.86376 4.36094 7.2197 5.407C5.89229 5.93215 4.94216 6.51179 4.35443 7.06152ZM5.8683 1.99111C9.041 0.735909 13.2985 0 17.9083 0C22.5181 0 26.7756 0.735909 29.9483 1.99111C31.5293 2.61658 32.9328 3.40704 33.9716 4.3787C35.0134 5.3532 35.8166 6.64167 35.8166 8.19505C35.8166 9.74842 35.0134 11.0369 33.9716 12.0114C32.9328 12.9831 31.5293 13.7735 29.9483 14.399C26.7756 15.6542 22.5181 16.3901 17.9083 16.3901C13.2985 16.3901 9.041 15.6542 5.8683 14.399C4.28733 13.7735 2.88384 12.9831 1.84503 12.0114C0.803195 11.0369 0 9.74842 0 8.19505C0 6.64167 0.803195 5.3532 1.84503 4.3787C2.88384 3.40704 4.28733 2.61658 5.8683 1.99111Z" fill="#89BCD9"/>
<path fill-rule="evenodd" clip-rule="evenodd" d="M1.83675 6.35867C2.85116 6.35867 3.6735 7.18064 3.6735 8.19505V17.7329C3.6735 17.9354 3.76979 18.3197 4.35443 18.8665C4.94213 19.4163 5.89223 19.9959 7.21962 20.521C9.86364 21.567 13.6419 22.2544 17.9083 22.2544C22.1747 22.2544 25.953 21.567 28.597 20.521C29.9244 19.9959 30.8745 19.4163 31.4622 18.8665C32.0468 18.3197 32.1431 17.9354 32.1431 17.7329V8.19505C32.1431 7.18064 32.9655 6.35867 33.9799 6.35867C34.9943 6.35867 35.8166 7.18064 35.8166 8.19505V17.7329C35.8166 19.2863 35.0135 20.5748 33.9716 21.5493C32.9328 22.521 31.5293 23.3115 29.9484 23.9369C26.7757 25.1921 22.5182 25.9279 17.9083 25.9279C13.2985 25.9279 9.04094 25.1921 5.86824 23.9369C4.28728 23.3115 2.88379 22.521 1.84498 21.5493C0.803125 20.5748 0 19.2863 0 17.7329V8.19505C0 7.18064 0.822341 6.35867 1.83675 6.35867Z" fill="#89BCD9"/>
<path fill-rule="evenodd" clip-rule="evenodd" d="M1.83675 15.8961C2.85116 15.8961 3.6735 16.7185 3.6735 17.7329V27.2703C3.6735 27.4729 3.76979 27.8571 4.35443 28.404C4.94213 28.9537 5.89223 29.5333 7.21962 30.0585C9.86364 31.1045 13.6419 31.7919 17.9083 31.7919C22.1747 31.7919 25.953 31.1045 28.597 30.0585C29.9244 29.5333 30.8745 28.9537 31.4622 28.404C32.0468 27.8571 32.1431 27.4729 32.1431 27.2703V17.7329C32.1431 16.7185 32.9655 15.8961 33.9799 15.8961C34.9943 15.8961 35.8166 16.7185 35.8166 17.7329V27.2703C35.8166 28.8237 35.0135 30.1122 33.9716 31.0868C32.9328 32.0585 31.5293 32.8489 29.9484 33.4744C26.7757 34.7295 22.5182 35.4654 17.9083 35.4654C13.2985 35.4654 9.04094 34.7295 5.86824 33.4744C4.28728 32.8489 2.88379 32.0585 1.84498 31.0868C0.803125 30.1122 0 28.8237 0 27.2703V17.7329C0 16.7185 0.822341 15.8961 1.83675 15.8961Z" fill="#89BCD9"/>
<path fill-rule="evenodd" clip-rule="evenodd" d="M1.83675 25.4308C2.85116 25.4308 3.6735 26.2531 3.6735 27.2675V36.805C3.6735 37.0075 3.76979 37.3918 4.35443 37.9386C4.94213 38.4884 5.89223 39.068 7.21962 39.5931C9.86364 40.6391 13.6419 41.3265 17.9083 41.3265C22.1747 41.3265 25.953 40.6391 28.597 39.5931C29.9244 39.068 30.8745 38.4884 31.4622 37.9386C32.0468 37.3918 32.1431 37.0075 32.1431 36.805V27.2675C32.1431 26.2531 32.9655 25.4308 33.9799 25.4308C34.9943 25.4308 35.8166 26.2531 35.8166 27.2675V36.805C35.8166 38.3583 35.0135 39.6469 33.9716 40.6214C32.9328 41.5931 31.5293 42.3836 29.9484 43.009C26.7757 44.2642 22.5182 45 17.9083 45C13.2985 45 9.04094 44.2642 5.86824 43.009C4.28728 42.3836 2.88379 41.5931 1.84498 40.6214C0.803125 39.6469 0 38.3583 0 36.805V27.2675C0 26.2531 0.822341 25.4308 1.83675 25.4308Z" fill="#89BCD9"/>
</svg>
